<?xml version="1.0" standalone="no"?>
<!DOCTYPE svg PUBLIC "-//W3C//DTD SVG 20010904//EN"
 "http://www.w3.org/TR/2001/REC-SVG-20010904/DTD/svg10.dtd">
<svg version="1.0" xmlns="http://www.w3.org/2000/svg"
 width="1080.000000pt" height="1080.000000pt" viewBox="0 0 1080.000000 1080.000000"
 preserveAspectRatio="xMidYMid meet">
<metadata>
Created by potrace 1.14, written by Peter Selinger 2001-2017
</metadata>
<g transform="translate(0.000000,1080.000000) scale(0.100000,-0.100000)"
fill="#000000" stroke="none">
<path d="M5310 8691 c0 -5 -14 -7 -32 -5 -17 2 -37 -1 -44 -7 -8 -7 -14 -7
-19 1 -5 8 -10 8 -20 0 -10 -8 -15 -8 -20 0 -5 8 -11 8 -20 0 -8 -7 -18 -9
-23 -7 -4 3 -14 2 -22 -3 -8 -5 -22 -4 -33 2 -12 6 -17 6 -13 0 8 -14 -18 -22
-35 -12 -9 6 -21 3 -33 -8 -11 -9 -16 -12 -13 -5 8 13 -18 12 -30 -2 -4 -4 -2
-5 6 0 10 5 12 4 7 -4 -5 -7 -13 -8 -24 -2 -12 7 -23 5 -36 -7 -11 -9 -16 -11
-12 -4 11 18 -5 14 -20 -5 -9 -11 -17 -14 -21 -8 -12 15 -33 16 -27 1 4 -9 -2
-13 -20 -11 -17 2 -24 -1 -19 -7 4 -7 -1 -9 -15 -6 -15 4 -26 -1 -37 -19 -13
-20 -19 -22 -31 -12 -10 8 -18 8 -27 0 -8 -6 -23 -9 -35 -6 -12 2 -25 -1 -28
-7 -4 -6 -2 -8 4 -4 6 3 13 2 16 -3 7 -10 -19 -9 -30 1 -7 7 -39 -9 -62 -30
-12 -10 -17 -10 -30 0 -12 10 -14 10 -8 1 4 -8 2 -13 -4 -13 -6 0 -8 -5 -4
-12 6 -10 4 -10 -8 0 -13 10 -17 10 -22 -3 -3 -8 -9 -15 -13 -14 -20 3 -27 -2
-13 -11 11 -8 8 -9 -12 -6 -16 3 -28 0 -28 -6 0 -5 -7 -8 -15 -4 -8 3 -14 2
-14 -2 1 -4 1 -14 0 -22 -1 -13 -2 -13 -11 0 -8 13 -10 13 -10 -2 0 -9 -5 -20
-12 -24 -7 -5 -8 -3 -3 7 7 11 5 11 -11 -1 -54 -41 -75 -60 -65 -60 5 0 13 4
16 10 3 5 16 15 28 20 22 11 22 11 2 -5 -11 -9 -30 -25 -43 -36 -13 -11 -27
-17 -32 -14 -5 3 -7 -3 -5 -15 2 -11 -1 -19 -8 -17 -7 1 -11 -6 -9 -17 2 -11
-1 -15 -7 -11 -6 3 -11 -1 -11 -9 0 -9 -8 -16 -17 -16 -15 0 -16 -2 -3 -10 13
-8 12 -10 -3 -10 -10 0 -15 -4 -12 -10 3 -5 2 -10 -4 -10 -6 0 -8 -7 -5 -15 4
-9 0 -15 -7 -15 -11 0 -11 -3 1 -10 8 -5 10 -10 4 -10 -6 0 -11 -6 -11 -12 0
-7 -3 -24 -7 -37 -6 -18 -5 -22 4 -16 9 6 11 4 6 -4 -5 -7 -15 -10 -23 -6 -13
4 -14 3 -3 -10 9 -11 9 -15 1 -15 -7 0 -10 -4 -7 -9 3 -5 -1 -12 -10 -15 -8
-3 -13 -2 -10 3 3 5 -1 12 -10 15 -8 3 -13 2 -10 -3 3 -5 -1 -12 -10 -15 -8
-3 -12 -2 -9 3 3 5 1 12 -5 16 -5 3 -10 1 -10 -5 0 -6 -5 -8 -10 -5 -6 4 -18
1 -27 -7 -12 -9 -15 -9 -9 0 4 6 3 12 -3 12 -5 0 -13 -5 -16 -10 -5 -8 -11 -8
-20 0 -11 9 -12 6 -8 -12 3 -17 2 -19 -5 -9 -7 10 -11 10 -17 1 -4 -6 -14 -9
-22 -5 -14 5 -14 3 -2 -12 7 -10 10 -15 5 -11 -13 11 -48 -11 -40 -24 5 -8 1
-9 -11 -4 -16 6 -16 4 -4 -11 7 -10 9 -14 4 -10 -5 4 -15 -3 -23 -15 -7 -13
-11 -15 -8 -6 3 10 0 20 -6 24 -6 4 -8 3 -5 -3 4 -6 0 -16 -8 -23 -12 -10 -13
-16 -3 -28 9 -11 10 -14 1 -9 -13 8 -37 -26 -26 -37 3 -3 1 -6 -6 -6 -8 0 -11
-6 -7 -16 3 -8 2 -12 -4 -9 -6 3 -11 1 -11 -4 -1 -6 -3 -15 -4 -21 -1 -5 -3
-17 -4 -26 0 -8 -5 -13 -9 -10 -4 2 -9 -4 -9 -15 -1 -12 3 -17 9 -13 7 4 8 2
4 -5 -4 -6 -12 -9 -17 -5 -6 3 -9 -2 -7 -12 2 -11 -2 -18 -8 -17 -8 1 -10 -6
-6 -19 4 -16 2 -19 -9 -13 -11 7 -12 6 -2 -6 9 -11 8 -18 -2 -33 -10 -13 -11
-24 -4 -37 8 -15 6 -19 -8 -19 -15 0 -15 -2 3 -16 10 -8 14 -13 8 -10 -7 3
-15 -1 -18 -10 -4 -10 -2 -13 7 -8 8 5 7 2 -2 -9 -10 -13 -10 -17 -1 -17 9 0
9 -4 2 -13 -7 -8 -7 -18 -2 -27 5 -9 5 -19 -2 -27 -5 -7 -8 -19 -5 -27 3 -8 1
-17 -6 -20 -7 -2 -3 -5 7 -5 20 -1 20 -1 0 -17 -10 -8 -13 -13 -6 -9 7 4 12 0
12 -9 0 -9 -6 -16 -12 -16 -8 0 -9 -3 -3 -8 6 -4 10 -16 9 -27 0 -11 3 -30 7
-41 4 -13 3 -26 -4 -33 -8 -8 -8 -11 2 -11 11 0 11 -3 2 -14 -10 -12 -8 -19 8
-35 16 -16 18 -21 6 -21 -8 0 -15 -5 -15 -10 0 -6 3 -9 8 -9 20 3 23 -3 11
-18 -10 -11 -10 -14 -1 -9 6 4 12 2 12 -3 0 -6 -6 -11 -12 -11 -7 0 -2 -7 10
-16 17 -12 20 -19 12 -34 -7 -13 -7 -21 1 -25 6 -4 8 -14 5 -22 -3 -8 -2 -11
3 -8 5 3 12 1 15 -4 4 -5 -2 -12 -11 -14 -16 -4 -16 -5 1 -6 16 -1 16 -3 6
-17 -11 -12 -11 -15 0 -12 7 2 15 -3 18 -11 3 -9 0 -11 -9 -6 -11 6 -11 5 -2
-5 6 -7 9 -19 5 -28 -4 -12 -1 -14 13 -9 15 6 16 5 5 -8 -7 -8 -9 -15 -4 -15
5 0 10 -10 10 -22 1 -13 5 -36 8 -51 4 -16 3 -26 -2 -23 -5 3 -9 -1 -9 -9 0
-8 7 -15 16 -16 10 0 12 -2 4 -6 -7 -2 -13 -9 -13 -14 0 -6 4 -8 8 -5 4 2 8
-4 8 -15 0 -10 -3 -19 -7 -19 -4 0 -3 -16 1 -35 4 -19 5 -35 2 -35 -3 0 -1 -5
6 -12 7 -7 8 -17 1 -30 -5 -10 -6 -18 -2 -18 11 0 10 -52 -1 -69 -6 -9 -5 -12
1 -8 6 4 16 0 23 -8 11 -13 10 -15 -6 -9 -18 5 -18 5 0 -10 11 -9 15 -16 9
-16 -5 0 -9 -10 -8 -22 4 -44 18 -88 26 -88 5 0 9 -5 9 -11 0 -5 -4 -8 -8 -5
-4 2 -8 -4 -8 -14 0 -15 3 -16 14 -8 7 6 12 7 11 2 -1 -5 0 -11 1 -14 8 -22 7
-39 -3 -33 -7 4 -6 -1 2 -10 19 -23 9 -31 -39 -30 -34 0 -43 -4 -54 -26 -8
-14 -17 -25 -20 -23 -3 1 -6 -1 -5 -5 0 -4 -8 -10 -18 -14 -17 -7 -16 -8 2 -9
18 -1 18 -2 3 -11 -11 -6 -15 -16 -11 -26 4 -10 2 -14 -4 -10 -8 5 -8 -4 -3
-28 4 -19 4 -33 0 -30 -5 3 -11 1 -15 -5 -3 -5 -1 -10 6 -10 9 0 9 -3 0 -14
-9 -10 -9 -16 -1 -21 8 -5 7 -11 -2 -23 -10 -12 -10 -14 0 -8 7 4 12 2 12 -8
0 -8 -4 -18 -10 -21 -5 -3 -10 -12 -10 -18 0 -7 4 -6 11 3 9 12 10 11 6 -6 -2
-12 1 -32 9 -45 9 -18 9 -27 1 -37 -7 -9 -7 -16 -1 -20 12 -8 12 -22 0 -41 -6
-9 -5 -12 2 -7 6 3 13 2 17 -4 3 -5 0 -10 -7 -10 -8 -1 -7 -5 5 -14 11 -9 14
-17 8 -21 -7 -4 -6 -17 3 -40 11 -25 12 -35 3 -39 -8 -3 -8 -5 1 -5 7 -1 10
-5 7 -11 -3 -5 -2 -10 4 -10 11 0 9 -19 -3 -39 -6 -10 -5 -12 2 -7 11 7 17 -6
13 -28 -1 -4 3 -14 9 -21 8 -10 7 -14 -2 -18 -9 -4 -10 -6 -1 -6 7 -1 10 -7 8
-13 -4 -9 -25 -13 -63 -12 -31 1 -63 -4 -71 -10 -11 -8 -13 -8 -8 1 5 8 -4 10
-30 8 -51 -4 -83 -15 -83 -28 0 -6 -3 -7 -7 -4 -10 10 -35 -31 -27 -45 5 -7 3
-8 -6 -3 -9 6 -10 2 -5 -15 5 -17 4 -20 -5 -15 -10 6 -12 1 -8 -19 3 -14 1
-26 -5 -26 -5 0 -4 -7 3 -15 10 -12 10 -15 -1 -15 -11 0 -11 -2 1 -10 8 -5 11
-12 8 -16 -4 -4 -3 -15 2 -25 7 -12 6 -19 -3 -22 -9 -4 -8 -6 2 -6 11 -1 11
-4 1 -16 -7 -8 -9 -15 -4 -15 5 0 9 -45 9 -101 0 -67 4 -104 12 -111 8 -7 9
-16 4 -27 -6 -10 -5 -24 1 -35 8 -14 7 -17 -1 -12 -6 4 -11 2 -11 -3 0 -6 6
-11 13 -11 9 0 9 -2 0 -8 -7 -5 -9 -13 -3 -21 4 -8 4 -25 -1 -38 -6 -16 -5
-23 4 -23 8 0 7 -4 -3 -10 -12 -8 -12 -10 -1 -10 11 0 11 -3 1 -15 -9 -11 -9
-15 -1 -15 7 0 9 -6 4 -17 -7 -16 -9 -48 -3 -63 9 -25 12 -73 14 -177 0 -68 4
-123 9 -123 4 0 7 -5 7 -11 0 -5 -4 -8 -8 -5 -5 3 -9 -1 -9 -9 0 -8 3 -15 7
-15 10 0 16 -183 6 -199 -4 -5 -2 -12 4 -16 6 -4 7 -12 0 -24 -6 -12 -5 -22 1
-28 8 -8 7 -13 -2 -18 -8 -6 -10 -4 -4 6 5 8 -3 2 -17 -12 -14 -15 -28 -34
-32 -44 -3 -9 -15 -19 -26 -22 -11 -3 -20 -9 -20 -13 0 -5 -8 -16 -17 -26 -10
-10 -18 -22 -18 -28 -1 -6 -6 -10 -12 -9 -6 1 -14 -9 -17 -22 -4 -14 -11 -25
-17 -25 -6 0 -7 -4 -4 -10 3 -5 1 -10 -5 -10 -7 0 -9 -7 -6 -16 3 -8 2 -12 -4
-9 -11 7 -32 -29 -23 -39 3 -3 1 -6 -6 -6 -8 0 -11 -6 -7 -16 5 -14 4 -15 -8
-5 -11 10 -14 9 -12 -1 1 -7 5 -19 10 -26 5 -8 3 -12 -6 -10 -8 2 -12 -4 -10
-14 2 -10 -2 -18 -8 -18 -6 0 -8 -4 -5 -10 3 -5 1 -10 -5 -10 -6 0 -8 -5 -5
-10 4 -6 1 -17 -5 -25 -6 -8 -9 -19 -5 -25 3 -5 -2 -10 -12 -10 -14 0 -15 -2
-4 -9 11 -7 10 -13 -3 -33 -9 -14 -13 -27 -10 -30 3 -4 -2 -18 -11 -32 -13
-19 -14 -26 -4 -26 8 0 5 -6 -7 -15 -16 -13 -17 -16 -4 -25 12 -7 12 -10 1
-10 -7 0 -11 -6 -7 -15 3 -8 1 -15 -3 -15 -5 0 -12 -7 -15 -16 -4 -10 -2 -13
7 -8 9 6 9 5 0 -8 -7 -8 -10 -18 -6 -21 3 -4 1 -7 -7 -7 -10 0 -10 -4 1 -17 8
-9 9 -14 3 -10 -16 10 -25 -18 -11 -33 9 -10 9 -11 -1 -6 -9 6 -11 1 -8 -19 3
-17 0 -28 -10 -32 -8 -3 -14 -10 -14 -15 0 -6 8 -7 17 -4 16 6 16 6 0 -12 -21
-23 -21 -39 -3 -58 10 -10 17 -11 21 -3 4 6 13 8 21 5 8 -3 14 0 14 7 0 7 5 4
11 -6 8 -13 14 -15 29 -7 10 6 21 6 24 2 6 -10 36 -9 53 1 6 4 15 2 19 -4 4
-8 9 -7 16 2 7 11 11 11 15 2 3 -9 10 -10 24 -3 14 8 19 7 19 -2 0 -8 3 -9 8
-3 8 12 42 16 42 6 0 -4 7 -8 15 -8 8 0 15 5 15 10 0 5 6 4 13 -2 8 -6 17 -8
21 -4 11 11 56 11 56 0 0 -5 7 -4 15 3 12 10 15 10 15 0 0 -10 3 -10 15 0 12
10 18 10 32 -1 15 -12 16 -12 8 1 -7 12 -6 13 6 3 22 -17 81 -24 98 -10 9 8
12 8 8 1 -5 -8 31 -10 126 -9 88 2 137 -1 146 -9 12 -8 13 -8 7 1 -5 9 1 13
18 13 14 0 26 -6 26 -12 0 -9 3 -9 8 -3 9 14 203 15 195 1 -4 -5 -1 -6 7 -1
18 11 160 13 160 2 0 -6 5 -6 13 0 14 11 109 9 128 -2 7 -5 10 -4 5 3 -4 7 1
10 14 9 11 -1 20 -5 20 -10 0 -5 7 -4 15 3 12 10 19 10 27 2 8 -8 17 -8 32 0
15 8 21 8 24 0 3 -9 9 -9 23 -2 10 6 19 7 19 3 0 -4 13 -8 30 -9 17 -1 27 3
23 9 -3 6 -1 7 4 4 20 -12 84 -17 77 -6 -4 7 2 7 15 -1 17 -9 26 -9 37 1 8 6
14 7 14 3 0 -5 38 -9 84 -9 47 0 119 -2 160 -5 46 -3 77 -1 80 5 2 6 9 5 17
-2 9 -9 16 -10 26 -2 9 9 13 8 13 0 0 -7 5 -9 13 -4 17 11 41 10 49 -2 5 -7 8
-6 8 1 0 7 30 10 85 8 63 -2 83 1 78 9 -4 7 1 6 10 -2 10 -8 20 -11 24 -8 3 4
12 2 20 -4 9 -8 13 -8 13 0 0 11 27 11 47 -2 6 -4 14 -3 17 1 3 5 18 8 33 8
15 -1 36 2 45 6 10 5 18 3 20 -4 3 -8 9 -8 25 1 15 8 24 8 28 1 5 -7 11 -8 19
-1 7 6 18 6 26 1 7 -4 23 -4 36 0 15 6 24 5 27 -3 3 -9 7 -9 19 1 12 10 17 10
20 1 3 -9 9 -9 27 1 19 10 22 10 15 -2 -6 -11 -5 -11 8 0 9 7 19 9 21 5 7 -10
68 -10 85 1 7 4 12 2 12 -4 0 -8 6 -7 21 1 16 8 23 8 29 -1 6 -9 13 -9 29 -1
11 7 21 8 21 3 0 -10 30 -9 48 2 6 4 12 3 12 -2 0 -10 36 -9 46 1 4 4 13 2 21
-4 10 -9 13 -8 13 2 0 11 2 11 8 2 6 -9 17 -10 38 -4 18 5 37 5 47 -1 10 -5
17 -5 17 0 0 5 7 9 15 9 8 0 15 -5 15 -10 0 -6 5 -6 13 1 6 5 21 6 32 2 11 -4
28 -3 39 2 10 6 21 6 25 2 8 -12 31 -16 31 -6 0 4 16 7 35 7 19 0 35 -4 35 -9
0 -5 7 -3 16 5 13 10 17 10 24 0 4 -8 13 -10 21 -5 19 11 59 11 59 0 0 -6 5
-5 11 1 8 8 20 8 36 2 16 -6 22 -5 18 1 -3 6 -2 10 4 10 5 0 13 -5 16 -10 4
-6 13 -7 23 -2 20 10 84 8 101 -2 6 -4 11 -3 11 3 0 6 12 8 32 4 22 -4 29 -3
24 5 -5 8 -2 10 8 6 9 -4 16 -1 16 6 0 9 3 10 13 1 10 -8 17 -7 25 1 9 9 12 9
12 -1 0 -10 3 -11 13 -2 10 8 17 7 25 -1 7 -7 12 -8 12 -2 0 6 7 11 15 11 8 0
15 -4 15 -9 0 -5 8 -5 17 1 9 5 26 5 38 1 12 -5 28 -4 35 0 9 5 20 4 27 -2 9
-7 13 -7 13 1 0 6 5 11 11 11 5 0 7 -6 3 -12 -5 -9 -2 -9 9 1 13 10 17 10 17
1 0 -10 3 -10 14 -1 10 9 16 9 21 1 5 -8 11 -8 21 1 11 9 14 9 14 -1 0 -9 3
-10 13 -1 10 8 17 7 25 -1 7 -7 12 -8 12 -2 0 6 7 11 15 11 8 0 15 -5 15 -10
0 -5 7 -4 15 3 12 10 15 10 15 0 0 -9 4 -9 13 -2 6 5 22 8 34 6 12 -2 25 1 29
8 5 7 3 8 -7 3 -11 -7 -12 -6 -2 6 10 12 10 18 0 29 -10 10 -9 11 3 5 12 -7
13 -6 3 7 -7 8 -14 27 -15 42 -1 14 -7 26 -13 26 -5 0 -3 5 5 10 8 5 10 10 4
10 -7 0 -15 7 -18 16 -6 15 -4 15 10 3 16 -13 16 -12 6 8 -7 12 -17 25 -23 28
-7 5 -6 11 2 21 9 11 9 14 -1 14 -7 0 -10 7 -6 15 3 8 1 15 -5 15 -6 0 -8 4
-5 9 8 12 -4 42 -13 36 -4 -2 -5 10 -3 27 4 24 2 29 -9 23 -11 -7 -10 -4 1 10
12 15 12 17 1 10 -11 -6 -13 -4 -8 8 3 10 2 17 -2 17 -5 0 -8 11 -7 25 2 14
-1 22 -7 18 -6 -4 -8 2 -5 15 4 12 2 22 -3 22 -5 0 -8 3 -7 8 3 12 -13 52 -21
52 -4 0 -8 10 -8 22 -1 13 -10 29 -20 37 -17 13 -17 13 2 7 18 -5 18 -5 4 6
-9 7 -15 21 -13 31 1 9 -2 15 -7 11 -5 -3 -9 2 -9 10 0 9 -8 16 -17 16 -15 0
-14 2 3 15 19 15 19 15 0 8 -15 -5 -18 -3 -13 9 3 10 0 19 -9 22 -9 3 -12 10
-9 16 3 5 -1 10 -9 10 -9 0 -13 6 -10 13 3 8 -3 20 -13 28 -16 13 -17 12 -4
-4 12 -15 12 -17 -3 -11 -11 4 -16 14 -13 25 3 11 0 22 -5 26 -7 4 -8 1 -3 -7
6 -9 4 -11 -4 -6 -7 5 -10 15 -6 23 5 14 3 14 -12 2 -11 -9 -14 -10 -9 -1 4 7
2 12 -5 12 -7 0 -10 3 -6 6 8 8 -16 33 -25 27 -5 -2 -8 3 -8 12 0 9 -4 13 -10
10 -5 -3 -10 1 -10 11 0 14 -3 14 -16 4 -8 -8 -14 -9 -13 -4 3 20 -14 53 -25
47 -8 -5 -8 -3 0 8 7 8 11 44 10 86 0 39 2 69 5 67 4 -2 5 12 2 31 -3 19 -1
35 4 35 5 0 9 9 9 20 0 11 -3 20 -6 20 -4 0 -7 7 -7 15 0 8 3 12 6 10 4 -2 7
23 7 55 0 36 -3 57 -9 53 -6 -4 -7 -1 -2 8 13 20 13 49 1 49 -8 0 -8 2 0 8 17
11 25 42 11 42 -7 0 -8 3 -2 8 6 4 10 25 10 47 0 22 4 46 10 54 8 12 7 13 -5
6 -13 -8 -13 -7 -1 8 9 12 10 17 2 17 -7 0 -9 5 -4 13 11 18 10 61 -2 70 -7 5
-7 9 0 15 14 10 15 62 1 62 -7 0 -7 3 -1 8 6 4 11 18 13 32 6 57 8 66 16 79 6
10 5 12 -3 7 -8 -5 -10 0 -7 19 3 15 8 30 10 33 3 3 1 11 -5 18 -7 9 -7 19 1
35 9 15 9 19 1 14 -8 -4 -10 2 -6 22 4 15 6 34 6 41 -3 47 3 112 11 112 3 0 3
13 -2 29 -4 16 -6 32 -2 35 3 3 0 6 -6 6 -6 0 -9 6 -6 14 3 7 -2 20 -10 29 -8
8 -12 17 -9 21 4 3 1 6 -6 6 -7 0 -19 7 -28 15 -9 10 -23 13 -35 9 -11 -3 -18
-2 -15 3 3 5 -17 9 -43 10 -30 0 -47 -4 -44 -9 4 -6 -1 -7 -12 -1 -23 10 -45
10 -61 0 -7 -4 -16 0 -21 9 -10 18 -5 54 8 54 4 0 7 8 7 18 0 36 3 43 16 36 7
-5 7 -1 -2 10 -9 10 -11 20 -5 24 15 11 17 62 2 62 -9 0 -9 3 2 9 8 6 19 7 25
3 5 -3 4 1 -3 10 -7 9 -9 19 -4 22 5 3 8 23 8 45 -1 22 2 37 6 35 3 -2 9 0 13
6 3 5 0 10 -7 10 -8 0 -9 3 -3 8 6 4 10 17 9 30 -1 12 3 22 7 22 5 0 9 5 9 11
0 5 -4 8 -9 4 -5 -3 -12 -1 -16 5 -3 5 1 10 10 10 12 0 14 4 5 19 -8 16 -6 20
8 24 16 4 16 5 -1 6 -10 0 -15 6 -12 11 4 6 12 7 18 3 7 -3 3 4 -8 17 -11 13
-15 20 -9 17 7 -4 15 0 18 9 3 8 2 12 -4 9 -6 -3 -10 5 -10 19 0 13 6 27 13
29 7 3 5 6 -6 6 -14 1 -16 5 -7 20 7 15 6 23 -4 34 -11 11 -12 17 -3 27 9 10
9 11 0 6 -12 -6 -17 5 -14 26 1 12 -60 58 -70 52 -6 -3 -16 -1 -24 6 -10 8
-15 8 -21 -1 -4 -8 -3 -9 4 -5 7 4 12 2 12 -3 0 -12 -35 -9 -47 4 -5 4 -2 5 5
1 6 -4 12 -3 12 1 0 5 -6 15 -12 22 -11 11 -10 13 4 8 13 -5 16 -1 12 19 -3
17 -1 23 7 19 8 -6 8 -2 0 14 -7 12 -8 21 -4 20 20 -3 27 2 13 11 -12 8 -12
10 5 10 17 0 17 2 5 10 -12 8 -12 10 -1 10 8 0 11 3 8 7 -4 3 -1 13 6 21 9 13
9 14 0 8 -18 -10 -16 -1 3 18 8 9 11 16 5 16 -19 0 -12 20 7 21 14 0 14 2 -3
9 -11 5 -15 9 -10 9 6 1 11 9 12 19 1 9 3 29 6 45 2 15 0 30 -5 33 -5 3 -2 14
7 24 11 12 13 20 5 25 -8 5 -8 11 1 21 9 12 9 13 -2 9 -10 -4 -15 1 -15 14 0
12 5 17 15 13 10 -4 12 -1 6 8 -14 23 -11 104 5 118 8 8 10 11 4 8 -7 -3 -14
3 -17 13 -3 13 0 18 7 15 7 -3 13 2 13 11 0 8 -5 15 -11 15 -6 0 -3 5 6 11 11
6 15 16 11 26 -5 12 -3 14 8 8 12 -8 12 -6 0 8 -11 14 -11 18 3 23 9 3 13 10
10 15 -3 6 -1 15 4 22 6 7 12 17 14 22 1 6 7 9 11 7 4 -1 4 6 -2 16 -6 11 -6
24 0 35 6 9 7 22 3 29 -4 7 -3 8 5 4 8 -5 10 0 7 18 -3 15 -1 24 4 21 4 -3 11
2 14 11 3 8 2 13 -3 10 -5 -3 -12 1 -15 10 -3 8 -2 13 2 11 4 -3 14 2 22 11
13 14 12 15 -2 9 -14 -5 -16 -2 -8 17 5 15 5 27 -2 34 -8 8 -4 9 13 5 24 -5
24 -5 4 10 -11 9 -14 17 -8 17 9 0 10 7 3 24 -6 16 -5 27 3 35 9 9 8 14 -3 21
-8 5 -10 10 -4 10 14 0 13 32 -1 42 -6 5 -6 8 1 8 6 0 11 6 11 14 0 8 -5 12
-11 10 -7 -3 -11 10 -10 33 1 21 -4 44 -10 52 -8 11 -8 13 1 8 15 -9 9 29 -7
48 -8 10 -6 15 10 20 11 4 17 11 14 17 -5 8 -1 9 10 5 14 -6 17 -3 12 9 -5 14
-4 15 8 5 11 -9 16 -9 22 0 4 8 3 9 -4 5 -7 -4 -12 -4 -12 -1 0 10 27 34 33
29 2 -3 7 2 11 11 3 10 2 14 -5 9 -6 -3 -5 3 3 15 7 12 21 24 31 27 9 3 15 9
12 14 -3 4 2 11 10 14 13 5 14 10 4 27 -6 13 -7 19 -1 15 6 -3 13 -2 17 4 3 5
0 10 -7 10 -10 0 -10 2 1 9 7 5 10 14 7 20 -4 6 -2 11 4 11 6 0 8 5 5 10 -3 6
-1 10 6 10 9 0 9 3 0 14 -10 11 -8 17 6 25 14 8 15 10 3 11 -12 0 -12 2 -1 9
10 7 11 13 1 31 -8 15 -8 20 -1 16 6 -4 11 0 11 9 0 9 -3 14 -8 11 -4 -2 -6
13 -4 35 4 37 3 39 -21 37 -19 -2 -23 -6 -16 -14 6 -8 4 -14 -6 -18 -9 -3 -13
-10 -10 -16 3 -5 1 -10 -5 -10 -6 0 -8 -4 -5 -10 8 -13 -13 -52 -25 -45 -4 3
-6 -4 -3 -15 3 -12 0 -20 -6 -20 -7 0 -9 5 -5 13 4 6 -2 3 -14 -7 -23 -20 -30
-32 -12 -21 6 3 10 1 10 -4 0 -14 -13 -14 -28 1 -9 9 -12 9 -12 -1 0 -10 -3
-11 -13 -2 -10 8 -17 7 -25 -1 -10 -10 -17 -10 -31 -1 -14 9 -21 9 -30 0 -8
-8 -11 -8 -11 1 0 6 -6 9 -14 6 -7 -3 -20 2 -29 10 -12 12 -17 13 -20 3 -3 -6
-6 -1 -7 13 -1 14 -4 20 -7 13 -3 -10 -7 -10 -18 0 -7 7 -10 16 -7 21 3 5 0 6
-5 3 -13 -8 -59 33 -68 61 -3 13 -15 22 -25 22 -14 0 -18 5 -13 17 5 13 2 15
-11 10 -9 -4 -15 -3 -11 2 3 5 0 13 -6 16 -5 4 -8 14 -4 22 5 14 3 14 -12 2
-11 -9 -14 -10 -9 -1 4 7 2 12 -4 12 -6 0 -9 4 -5 9 3 5 -4 13 -16 16 -19 7
-20 7 -2 21 13 10 13 12 3 9 -16 -6 -60 36 -60 55 0 6 -9 10 -21 10 -12 0 -17
4 -14 11 9 13 -23 49 -43 49 -9 0 -12 6 -8 15 4 12 2 13 -13 5 -15 -7 -18 -6
-17 8 0 9 -9 21 -21 27 -13 5 -23 13 -23 18 0 4 -6 5 -12 1 -9 -5 -8 -2 1 9
12 15 12 17 -4 11 -13 -5 -16 -4 -11 4 5 8 1 10 -10 5 -12 -4 -15 -3 -10 5 4
7 1 12 -7 12 -8 0 -22 11 -31 25 -9 14 -21 23 -26 20 -4 -3 -15 1 -23 9 -8 8
-17 12 -21 9 -3 -4 -6 -1 -6 5 0 6 -9 14 -20 17 -11 3 -20 14 -21 23 0 10 -3
12 -5 5 -7 -16 -54 5 -54 23 0 8 -6 11 -17 7 -12 -5 -14 -3 -8 8 7 11 5 11
-10 -1 -11 -9 -16 -10 -11 -2 4 7 2 12 -4 12 -6 0 -8 5 -4 13 5 8 2 8 -9 -2
-11 -9 -17 -10 -17 -2 0 6 -9 11 -21 11 -13 0 -18 4 -13 12 5 7 0 9 -14 6 -12
-4 -20 -1 -19 4 1 6 -13 12 -31 13 -18 1 -38 7 -45 15 -10 10 -9 11 2 5 9 -5
12 -4 8 2 -4 6 -18 8 -32 5 -14 -2 -25 0 -25 5 0 5 -9 10 -20 11 -44 4 -50 6
-50 16 0 7 -3 7 -8 1 -10 -14 -32 -17 -32 -4 0 6 -6 9 -14 6 -7 -3 -19 0 -25
6 -6 6 -11 7 -11 2 0 -6 -5 -3 -10 5 -7 11 -10 11 -10 2 0 -9 -5 -10 -18 -3
-11 6 -38 11 -60 12 -23 2 -42 8 -42 13 0 7 -3 8 -8 1 -9 -13 -42 -16 -42 -3
0 5 -6 6 -12 2 -17 -11 -48 -13 -42 -3 2 4 -5 7 -16 6 -11 -1 -20 -5 -20 -10
0 -5 -7 -1 -16 7 -10 10 -21 13 -32 8 -17 -8 -91 -7 -99 2 -3 2 -17 0 -33 -4
-20 -6 -30 -5 -34 3 -3 9 -5 9 -5 0 -1 -9 -8 -10 -26 -3 -14 5 -25 6 -25 1z
m1144 -289 c3 -5 -1 -9 -9 -9 -8 0 -12 4 -9 9 3 4 7 8 9 8 2 0 6 -4 9 -8z
m207 -179 c13 -16 12 -17 -3 -4 -10 7 -18 15 -18 17 0 8 8 3 21 -13z m470
-730 c13 -16 12 -17 -3 -4 -10 7 -18 15 -18 17 0 8 8 3 21 -13z m-45 -1375
c12 -14 13 -18 3 -10 -9 6 -18 10 -21 7 -2 -3 -5 2 -5 10 0 19 0 19 23 -7z"/>
<path d="M4710 8574 c0 -8 5 -12 10 -9 6 3 10 10 10 16 0 5 -4 9 -10 9 -5 0
-10 -7 -10 -16z"/>
<path d="M6827 8039 c7 -7 15 -10 18 -7 3 3 -2 9 -12 12 -14 6 -15 5 -6 -5z"/>
<path d="M3436 3893 c-6 -14 -5 -15 5 -6 7 7 10 15 7 18 -3 3 -9 -2 -12 -12z"/>
</g>
</svg>
